<mxfile host="app.diagrams.net" modified="2023-10-01T18:18:17.056Z" agent="Mozilla/5.0 (Windows NT 10.0; Win64; x64) AppleWebKit/537.36 (KHTML, like Gecko) Chrome/117.0.0.0 Safari/537.36" etag="KJvfUlIee4_noZSLBNdh" version="21.7.4" type="github">
  <diagram name="Página-1" id="53ioumdITKJLZUPyk8oe">
    <mxGraphModel dx="1037" dy="1301" grid="1" gridSize="10" guides="1" tooltips="1" connect="1" arrows="1" fold="1" page="1" pageScale="1" pageWidth="450" pageHeight="800" math="0" shadow="0">
      <root>
        <mxCell id="0" />
        <mxCell id="1" parent="0" />
        <mxCell id="17rlqQ4K7FpVVpBtT9sW-1" value="A2: Mecánico Taller" style="swimlane;horizontal=0;whiteSpace=wrap;html=1;startSize=23;" vertex="1" parent="1">
          <mxGeometry x="70" y="960" width="860" height="230" as="geometry" />
        </mxCell>
        <mxCell id="17rlqQ4K7FpVVpBtT9sW-45" value="P22: Selecciona marcas" style="rounded=0;whiteSpace=wrap;html=1;" vertex="1" parent="17rlqQ4K7FpVVpBtT9sW-1">
          <mxGeometry x="180" y="50" width="120" height="60" as="geometry" />
        </mxCell>
        <mxCell id="17rlqQ4K7FpVVpBtT9sW-46" value="P23: Registra disponibilidad de mantenimientos" style="rounded=0;whiteSpace=wrap;html=1;" vertex="1" parent="17rlqQ4K7FpVVpBtT9sW-1">
          <mxGeometry x="320" y="50" width="120" height="60" as="geometry" />
        </mxCell>
        <mxCell id="17rlqQ4K7FpVVpBtT9sW-47" value="P24: Realiza mantenimientos" style="rounded=0;whiteSpace=wrap;html=1;" vertex="1" parent="17rlqQ4K7FpVVpBtT9sW-1">
          <mxGeometry x="180" y="120" width="120" height="60" as="geometry" />
        </mxCell>
        <mxCell id="17rlqQ4K7FpVVpBtT9sW-2" value="&lt;font style=&quot;font-size: 11px;&quot;&gt;A0: Administrador&lt;/font&gt;" style="swimlane;horizontal=0;whiteSpace=wrap;html=1;" vertex="1" parent="1">
          <mxGeometry x="1460" y="-140" width="930" height="380" as="geometry" />
        </mxCell>
        <mxCell id="17rlqQ4K7FpVVpBtT9sW-6" value="" style="rounded=0;whiteSpace=wrap;html=1;" vertex="1" parent="1">
          <mxGeometry x="200" y="-110" width="120" height="60" as="geometry" />
        </mxCell>
        <mxCell id="17rlqQ4K7FpVVpBtT9sW-7" value="" style="html=1;shadow=0;dashed=0;align=center;verticalAlign=middle;shape=mxgraph.arrows2.arrow;dy=0.6;dx=40;notch=0;" vertex="1" parent="1">
          <mxGeometry x="80" y="-120" width="100" height="70" as="geometry" />
        </mxCell>
        <mxCell id="17rlqQ4K7FpVVpBtT9sW-5" value="" style="shape=dataStorage;whiteSpace=wrap;html=1;fixedSize=1;" vertex="1" parent="1">
          <mxGeometry x="335" y="-110" width="100" height="80" as="geometry" />
        </mxCell>
        <mxCell id="17rlqQ4K7FpVVpBtT9sW-8" value="" style="strokeWidth=1;html=1;shape=mxgraph.flowchart.display;whiteSpace=wrap;" vertex="1" parent="1">
          <mxGeometry x="575" y="-110" width="100" height="60" as="geometry" />
        </mxCell>
        <mxCell id="17rlqQ4K7FpVVpBtT9sW-73" value="A1: Usuario" style="swimlane;horizontal=0;whiteSpace=wrap;html=1;" vertex="1" parent="1">
          <mxGeometry x="1470" y="290" width="1240" height="640" as="geometry" />
        </mxCell>
        <mxCell id="17rlqQ4K7FpVVpBtT9sW-74" value="P0: Registra moto" style="rounded=0;whiteSpace=wrap;html=1;" vertex="1" parent="17rlqQ4K7FpVVpBtT9sW-73">
          <mxGeometry x="210" y="147" width="110" height="70" as="geometry" />
        </mxCell>
        <mxCell id="17rlqQ4K7FpVVpBtT9sW-75" value="P1: Programa notificaciones" style="rounded=0;whiteSpace=wrap;html=1;" vertex="1" parent="17rlqQ4K7FpVVpBtT9sW-73">
          <mxGeometry x="460" y="255" width="120" height="60" as="geometry" />
        </mxCell>
        <mxCell id="17rlqQ4K7FpVVpBtT9sW-77" value="P3: Transmite ubicaciones" style="rounded=0;whiteSpace=wrap;html=1;" vertex="1" parent="17rlqQ4K7FpVVpBtT9sW-73">
          <mxGeometry x="460" y="70" width="120" height="70" as="geometry" />
        </mxCell>
        <mxCell id="17rlqQ4K7FpVVpBtT9sW-78" value="P4: Programa mantenimientos" style="rounded=0;whiteSpace=wrap;html=1;" vertex="1" parent="17rlqQ4K7FpVVpBtT9sW-73">
          <mxGeometry x="460" y="170" width="120" height="60" as="geometry" />
        </mxCell>
        <mxCell id="17rlqQ4K7FpVVpBtT9sW-79" value="P5: Confirma mantenimientos" style="rounded=0;whiteSpace=wrap;html=1;" vertex="1" parent="17rlqQ4K7FpVVpBtT9sW-73">
          <mxGeometry x="1000" y="285" width="120" height="60" as="geometry" />
        </mxCell>
        <mxCell id="17rlqQ4K7FpVVpBtT9sW-130" style="edgeStyle=orthogonalEdgeStyle;rounded=0;orthogonalLoop=1;jettySize=auto;html=1;endArrow=block;endFill=1;" edge="1" parent="17rlqQ4K7FpVVpBtT9sW-73" source="17rlqQ4K7FpVVpBtT9sW-80" target="17rlqQ4K7FpVVpBtT9sW-79">
          <mxGeometry relative="1" as="geometry">
            <Array as="points">
              <mxPoint x="860" y="310" />
            </Array>
          </mxGeometry>
        </mxCell>
        <mxCell id="17rlqQ4K7FpVVpBtT9sW-80" value="P6: Asiste a mantenimientos" style="rounded=0;whiteSpace=wrap;html=1;" vertex="1" parent="17rlqQ4K7FpVVpBtT9sW-73">
          <mxGeometry x="810" y="204" width="110" height="50" as="geometry" />
        </mxCell>
        <mxCell id="17rlqQ4K7FpVVpBtT9sW-81" value="P7: Cancela mantenimientos" style="rounded=0;whiteSpace=wrap;html=1;" vertex="1" parent="17rlqQ4K7FpVVpBtT9sW-73">
          <mxGeometry x="810" y="128" width="110" height="48" as="geometry" />
        </mxCell>
        <mxCell id="17rlqQ4K7FpVVpBtT9sW-82" value="&lt;div style=&quot;text-align: justify;&quot;&gt;&lt;span style=&quot;font-size: 10px; background-color: initial;&quot;&gt;E02: Usuario registrado&lt;/span&gt;&lt;/div&gt;&lt;font style=&quot;font-size: 10px;&quot;&gt;&lt;div style=&quot;text-align: justify;&quot;&gt;&lt;span style=&quot;background-color: initial;&quot;&gt;a DinoTrack&lt;/span&gt;&lt;/div&gt;&lt;/font&gt;" style="html=1;shadow=0;dashed=0;align=center;verticalAlign=middle;shape=mxgraph.arrows2.arrow;dy=0.53;dx=35.24;notch=0;" vertex="1" parent="17rlqQ4K7FpVVpBtT9sW-73">
          <mxGeometry x="90" y="180" width="120" height="60" as="geometry" />
        </mxCell>
        <mxCell id="17rlqQ4K7FpVVpBtT9sW-83" value="&lt;p&gt;&lt;font style=&quot;font-size: 10px;&quot;&gt;E01: Asignación de&amp;nbsp;&lt;/font&gt;&lt;span style=&quot;font-size: 10px; background-color: initial;&quot;&gt;permisos&amp;nbsp;&lt;br&gt;&lt;/span&gt;&lt;span style=&quot;background-color: initial; font-size: 10px;&quot;&gt;para el rol&amp;nbsp;&lt;/span&gt;&lt;span style=&quot;background-color: initial; font-size: 10px;&quot;&gt;Usuario por el&amp;nbsp;&lt;br&gt;&lt;/span&gt;&lt;span style=&quot;background-color: initial; font-size: 10px;&quot;&gt;Administrador&lt;/span&gt;&lt;/p&gt;" style="html=1;shadow=0;dashed=0;align=left;verticalAlign=middle;shape=mxgraph.arrows2.arrow;dy=0.53;dx=48.41;notch=0;" vertex="1" parent="17rlqQ4K7FpVVpBtT9sW-73">
          <mxGeometry x="40" y="100" width="170" height="95" as="geometry" />
        </mxCell>
        <mxCell id="17rlqQ4K7FpVVpBtT9sW-94" style="edgeStyle=orthogonalEdgeStyle;rounded=0;orthogonalLoop=1;jettySize=auto;html=1;curved=0;entryX=0;entryY=0.5;entryDx=0;entryDy=0;endArrow=block;endFill=1;" edge="1" parent="17rlqQ4K7FpVVpBtT9sW-73">
          <mxGeometry relative="1" as="geometry">
            <mxPoint x="380.0000000000002" y="148.99999999999977" as="sourcePoint" />
            <mxPoint x="460" y="199" as="targetPoint" />
            <Array as="points">
              <mxPoint x="430" y="149" />
              <mxPoint x="430" y="199" />
            </Array>
          </mxGeometry>
        </mxCell>
        <mxCell id="17rlqQ4K7FpVVpBtT9sW-109" style="edgeStyle=orthogonalEdgeStyle;rounded=0;orthogonalLoop=1;jettySize=auto;html=1;curved=0;endArrow=block;endFill=1;" edge="1" parent="17rlqQ4K7FpVVpBtT9sW-73" source="17rlqQ4K7FpVVpBtT9sW-85" target="17rlqQ4K7FpVVpBtT9sW-75">
          <mxGeometry relative="1" as="geometry">
            <Array as="points">
              <mxPoint x="420" y="170" />
              <mxPoint x="420" y="285" />
            </Array>
          </mxGeometry>
        </mxCell>
        <mxCell id="17rlqQ4K7FpVVpBtT9sW-200" style="edgeStyle=orthogonalEdgeStyle;shape=connector;rounded=0;jumpStyle=arc;orthogonalLoop=1;jettySize=auto;html=1;curved=0;entryX=0;entryY=0.5;entryDx=0;entryDy=0;labelBackgroundColor=default;strokeColor=default;fontFamily=Helvetica;fontSize=11;fontColor=default;endArrow=block;endFill=1;" edge="1" parent="17rlqQ4K7FpVVpBtT9sW-73" source="17rlqQ4K7FpVVpBtT9sW-85" target="17rlqQ4K7FpVVpBtT9sW-77">
          <mxGeometry relative="1" as="geometry">
            <Array as="points">
              <mxPoint x="430" y="140" />
              <mxPoint x="430" y="105" />
            </Array>
          </mxGeometry>
        </mxCell>
        <mxCell id="17rlqQ4K7FpVVpBtT9sW-85" value="" style="html=1;points=[[0,0,0,0,5],[0,1,0,0,-5],[1,0,0,0,5],[1,1,0,0,-5]];perimeter=orthogonalPerimeter;outlineConnect=0;targetShapes=umlLifeline;portConstraint=eastwest;newEdgeStyle={&quot;curved&quot;:0,&quot;rounded&quot;:0};fillColor=#000000;" vertex="1" parent="17rlqQ4K7FpVVpBtT9sW-73">
          <mxGeometry x="370" y="107.5" width="10" height="80" as="geometry" />
        </mxCell>
        <mxCell id="17rlqQ4K7FpVVpBtT9sW-92" style="edgeStyle=orthogonalEdgeStyle;rounded=0;orthogonalLoop=1;jettySize=auto;html=1;endArrow=block;endFill=1;" edge="1" parent="17rlqQ4K7FpVVpBtT9sW-73" source="17rlqQ4K7FpVVpBtT9sW-74" target="17rlqQ4K7FpVVpBtT9sW-85">
          <mxGeometry relative="1" as="geometry" />
        </mxCell>
        <mxCell id="17rlqQ4K7FpVVpBtT9sW-86" value="&lt;div style=&quot;&quot;&gt;&lt;div style=&quot;text-align: justify;&quot;&gt;&lt;span style=&quot;font-size: 10px; background-color: initial;&quot;&gt;R01: Moto&lt;/span&gt;&lt;/div&gt;&lt;font style=&quot;font-size: 10px;&quot;&gt;&lt;div style=&quot;text-align: justify;&quot;&gt;&lt;span style=&quot;background-color: initial;&quot;&gt;Registrada&lt;/span&gt;&lt;/div&gt;&lt;/font&gt;&lt;/div&gt;" style="html=1;shadow=0;dashed=0;align=center;verticalAlign=middle;shape=mxgraph.arrows2.arrow;dy=0.53;dx=35.24;notch=0;" vertex="1" parent="17rlqQ4K7FpVVpBtT9sW-73">
          <mxGeometry x="320" y="195" width="90" height="60" as="geometry" />
        </mxCell>
        <mxCell id="17rlqQ4K7FpVVpBtT9sW-87" style="edgeStyle=orthogonalEdgeStyle;rounded=0;orthogonalLoop=1;jettySize=auto;html=1;exitX=0.5;exitY=1;exitDx=0;exitDy=0;" edge="1" parent="17rlqQ4K7FpVVpBtT9sW-73" source="17rlqQ4K7FpVVpBtT9sW-78" target="17rlqQ4K7FpVVpBtT9sW-78">
          <mxGeometry relative="1" as="geometry" />
        </mxCell>
        <mxCell id="17rlqQ4K7FpVVpBtT9sW-89" value="S1: Moto" style="shape=dataStorage;whiteSpace=wrap;html=1;fixedSize=1;align=left;" vertex="1" parent="17rlqQ4K7FpVVpBtT9sW-73">
          <mxGeometry x="700" y="315" width="80" height="60" as="geometry" />
        </mxCell>
        <mxCell id="17rlqQ4K7FpVVpBtT9sW-134" style="edgeStyle=orthogonalEdgeStyle;shape=connector;rounded=0;orthogonalLoop=1;jettySize=auto;html=1;dashed=1;labelBackgroundColor=default;strokeColor=default;fontFamily=Helvetica;fontSize=11;fontColor=default;endArrow=block;endFill=1;" edge="1" parent="17rlqQ4K7FpVVpBtT9sW-73" source="17rlqQ4K7FpVVpBtT9sW-74" target="17rlqQ4K7FpVVpBtT9sW-89">
          <mxGeometry relative="1" as="geometry">
            <Array as="points">
              <mxPoint x="270" y="340" />
            </Array>
          </mxGeometry>
        </mxCell>
        <mxCell id="17rlqQ4K7FpVVpBtT9sW-96" value="&lt;div style=&quot;&quot;&gt;&lt;div style=&quot;&quot;&gt;&lt;div style=&quot;&quot;&gt;&lt;div style=&quot;text-align: left;&quot;&gt;&lt;span style=&quot;font-size: 10px; background-color: initial;&quot;&gt;R04: Ubicación&lt;/span&gt;&lt;/div&gt;&lt;font style=&quot;font-size: 10px;&quot;&gt;&lt;div style=&quot;text-align: left;&quot;&gt;&lt;span style=&quot;background-color: initial;&quot;&gt;transmitida&lt;/span&gt;&lt;/div&gt;&lt;/font&gt;&lt;/div&gt;&lt;/div&gt;&lt;/div&gt;" style="html=1;shadow=0;dashed=0;align=center;verticalAlign=middle;shape=mxgraph.arrows2.arrow;dy=0.53;dx=35.24;notch=0;" vertex="1" parent="17rlqQ4K7FpVVpBtT9sW-73">
          <mxGeometry x="580" y="80" width="100" height="60" as="geometry" />
        </mxCell>
        <mxCell id="17rlqQ4K7FpVVpBtT9sW-98" value="&lt;font style=&quot;font-size: 10px;&quot;&gt;R05: Mantenimiento &lt;br&gt;programado&lt;/font&gt;" style="html=1;shadow=0;dashed=0;align=left;verticalAlign=middle;shape=mxgraph.arrows2.arrow;dy=0.6;dx=40;notch=0;" vertex="1" parent="17rlqQ4K7FpVVpBtT9sW-73">
          <mxGeometry x="580" y="165" width="100" height="70" as="geometry" />
        </mxCell>
        <mxCell id="17rlqQ4K7FpVVpBtT9sW-137" style="edgeStyle=orthogonalEdgeStyle;shape=connector;rounded=0;orthogonalLoop=1;jettySize=auto;html=1;dashed=1;labelBackgroundColor=default;strokeColor=default;fontFamily=Helvetica;fontSize=11;fontColor=default;endArrow=block;endFill=1;jumpStyle=arc;entryX=0.5;entryY=0;entryDx=0;entryDy=0;" edge="1" parent="17rlqQ4K7FpVVpBtT9sW-73" source="17rlqQ4K7FpVVpBtT9sW-100" target="17rlqQ4K7FpVVpBtT9sW-89">
          <mxGeometry relative="1" as="geometry">
            <mxPoint x="740" y="300" as="targetPoint" />
            <Array as="points">
              <mxPoint x="690" y="100" />
              <mxPoint x="690" y="290" />
              <mxPoint x="740" y="290" />
            </Array>
          </mxGeometry>
        </mxCell>
        <mxCell id="17rlqQ4K7FpVVpBtT9sW-100" value="S2: Ubicación" style="shape=dataStorage;whiteSpace=wrap;html=1;fixedSize=1;align=left;" vertex="1" parent="17rlqQ4K7FpVVpBtT9sW-73">
          <mxGeometry x="755" y="80" width="100" height="40" as="geometry" />
        </mxCell>
        <mxCell id="17rlqQ4K7FpVVpBtT9sW-133" style="edgeStyle=orthogonalEdgeStyle;rounded=0;orthogonalLoop=1;jettySize=auto;html=1;entryX=0.5;entryY=0;entryDx=0;entryDy=0;dashed=1;endArrow=block;endFill=1;" edge="1" parent="17rlqQ4K7FpVVpBtT9sW-73" source="17rlqQ4K7FpVVpBtT9sW-77" target="17rlqQ4K7FpVVpBtT9sW-100">
          <mxGeometry relative="1" as="geometry">
            <Array as="points">
              <mxPoint x="520" y="60" />
              <mxPoint x="805" y="60" />
            </Array>
          </mxGeometry>
        </mxCell>
        <mxCell id="17rlqQ4K7FpVVpBtT9sW-141" style="edgeStyle=orthogonalEdgeStyle;shape=connector;rounded=0;orthogonalLoop=1;jettySize=auto;html=1;dashed=1;labelBackgroundColor=default;strokeColor=default;fontFamily=Helvetica;fontSize=11;fontColor=default;endArrow=block;endFill=1;" edge="1" parent="17rlqQ4K7FpVVpBtT9sW-73" source="17rlqQ4K7FpVVpBtT9sW-101" target="17rlqQ4K7FpVVpBtT9sW-89">
          <mxGeometry relative="1" as="geometry">
            <Array as="points">
              <mxPoint x="575" y="360" />
            </Array>
          </mxGeometry>
        </mxCell>
        <mxCell id="17rlqQ4K7FpVVpBtT9sW-101" value="S3: Notificación" style="shape=dataStorage;whiteSpace=wrap;html=1;fixedSize=1;align=left;" vertex="1" parent="17rlqQ4K7FpVVpBtT9sW-73">
          <mxGeometry x="520" y="469" width="110" height="40" as="geometry" />
        </mxCell>
        <mxCell id="17rlqQ4K7FpVVpBtT9sW-144" style="edgeStyle=orthogonalEdgeStyle;shape=connector;rounded=0;orthogonalLoop=1;jettySize=auto;html=1;dashed=1;labelBackgroundColor=default;strokeColor=default;fontFamily=Helvetica;fontSize=11;fontColor=default;endArrow=block;endFill=1;jumpStyle=arc;" edge="1" parent="17rlqQ4K7FpVVpBtT9sW-73" source="17rlqQ4K7FpVVpBtT9sW-75" target="17rlqQ4K7FpVVpBtT9sW-101">
          <mxGeometry relative="1" as="geometry">
            <Array as="points">
              <mxPoint x="520" y="380" />
              <mxPoint x="560" y="380" />
            </Array>
          </mxGeometry>
        </mxCell>
        <mxCell id="17rlqQ4K7FpVVpBtT9sW-103" value="&lt;font style=&quot;font-size: 10px;&quot;&gt;R02: Notificación &lt;br&gt;programada&lt;/font&gt;" style="html=1;shadow=0;dashed=0;align=left;verticalAlign=middle;shape=mxgraph.arrows2.arrow;dy=0.58;dx=24.5;notch=0;" vertex="1" parent="17rlqQ4K7FpVVpBtT9sW-73">
          <mxGeometry x="580" y="255" width="90" height="70" as="geometry" />
        </mxCell>
        <mxCell id="17rlqQ4K7FpVVpBtT9sW-105" value="&lt;font style=&quot;font-size: 10px;&quot;&gt;E03: Mantenimiento &lt;br&gt;preventivo pendiente&lt;/font&gt;" style="html=1;shadow=0;dashed=0;align=left;verticalAlign=middle;shape=mxgraph.arrows2.arrow;dy=0.62;dx=18.17;notch=0;" vertex="1" parent="17rlqQ4K7FpVVpBtT9sW-73">
          <mxGeometry x="90" y="437" width="100" height="70" as="geometry" />
        </mxCell>
        <mxCell id="17rlqQ4K7FpVVpBtT9sW-139" style="edgeStyle=orthogonalEdgeStyle;shape=connector;rounded=0;orthogonalLoop=1;jettySize=auto;html=1;dashed=1;labelBackgroundColor=default;strokeColor=default;fontFamily=Helvetica;fontSize=11;fontColor=default;endArrow=block;endFill=1;" edge="1" parent="17rlqQ4K7FpVVpBtT9sW-73" source="17rlqQ4K7FpVVpBtT9sW-106" target="17rlqQ4K7FpVVpBtT9sW-101">
          <mxGeometry relative="1" as="geometry">
            <Array as="points">
              <mxPoint x="250" y="527" />
              <mxPoint x="570" y="527" />
            </Array>
          </mxGeometry>
        </mxCell>
        <mxCell id="17rlqQ4K7FpVVpBtT9sW-158" style="edgeStyle=orthogonalEdgeStyle;shape=connector;rounded=0;jumpStyle=arc;orthogonalLoop=1;jettySize=auto;html=1;dashed=1;labelBackgroundColor=default;strokeColor=default;fontFamily=Helvetica;fontSize=11;fontColor=default;endArrow=block;endFill=1;" edge="1" parent="17rlqQ4K7FpVVpBtT9sW-73" source="17rlqQ4K7FpVVpBtT9sW-106" target="17rlqQ4K7FpVVpBtT9sW-89">
          <mxGeometry relative="1" as="geometry">
            <Array as="points">
              <mxPoint x="250" y="350" />
            </Array>
          </mxGeometry>
        </mxCell>
        <mxCell id="17rlqQ4K7FpVVpBtT9sW-106" value="P2: Recibe notificaciones" style="rounded=0;whiteSpace=wrap;html=1;" vertex="1" parent="17rlqQ4K7FpVVpBtT9sW-73">
          <mxGeometry x="190" y="442" width="120" height="60" as="geometry" />
        </mxCell>
        <mxCell id="17rlqQ4K7FpVVpBtT9sW-107" value="&lt;font style=&quot;font-size: 10px;&quot;&gt;R03: Notificación &lt;br&gt;recibida&lt;/font&gt;" style="html=1;shadow=0;dashed=0;align=left;verticalAlign=middle;shape=mxgraph.arrows2.arrow;dy=0.6;dx=40;notch=0;" vertex="1" parent="17rlqQ4K7FpVVpBtT9sW-73">
          <mxGeometry x="310" y="437" width="100" height="70" as="geometry" />
        </mxCell>
        <mxCell id="17rlqQ4K7FpVVpBtT9sW-127" style="edgeStyle=orthogonalEdgeStyle;rounded=0;orthogonalLoop=1;jettySize=auto;html=1;curved=0;endArrow=block;endFill=1;" edge="1" parent="17rlqQ4K7FpVVpBtT9sW-73" source="17rlqQ4K7FpVVpBtT9sW-110" target="17rlqQ4K7FpVVpBtT9sW-81">
          <mxGeometry relative="1" as="geometry">
            <Array as="points">
              <mxPoint x="770" y="192" />
              <mxPoint x="770" y="152" />
            </Array>
          </mxGeometry>
        </mxCell>
        <mxCell id="17rlqQ4K7FpVVpBtT9sW-128" style="edgeStyle=orthogonalEdgeStyle;rounded=0;orthogonalLoop=1;jettySize=auto;html=1;curved=0;endArrow=block;endFill=1;" edge="1" parent="17rlqQ4K7FpVVpBtT9sW-73" source="17rlqQ4K7FpVVpBtT9sW-110" target="17rlqQ4K7FpVVpBtT9sW-80">
          <mxGeometry relative="1" as="geometry">
            <Array as="points">
              <mxPoint x="770" y="202" />
              <mxPoint x="770" y="232" />
            </Array>
          </mxGeometry>
        </mxCell>
        <mxCell id="17rlqQ4K7FpVVpBtT9sW-110" value="" style="html=1;points=[[0,0,0,0,5],[0,1,0,0,-5],[1,0,0,0,5],[1,1,0,0,-5]];perimeter=orthogonalPerimeter;outlineConnect=0;targetShapes=umlLifeline;portConstraint=eastwest;newEdgeStyle={&quot;curved&quot;:0,&quot;rounded&quot;:0};fillColor=#000000;" vertex="1" parent="17rlqQ4K7FpVVpBtT9sW-73">
          <mxGeometry x="730" y="157" width="10" height="80" as="geometry" />
        </mxCell>
        <mxCell id="17rlqQ4K7FpVVpBtT9sW-126" style="edgeStyle=orthogonalEdgeStyle;rounded=0;orthogonalLoop=1;jettySize=auto;html=1;endArrow=block;endFill=1;jumpStyle=none;" edge="1" parent="17rlqQ4K7FpVVpBtT9sW-73" source="17rlqQ4K7FpVVpBtT9sW-78" target="17rlqQ4K7FpVVpBtT9sW-110">
          <mxGeometry relative="1" as="geometry">
            <Array as="points">
              <mxPoint x="520" y="150" />
              <mxPoint x="700" y="150" />
              <mxPoint x="700" y="205" />
            </Array>
          </mxGeometry>
        </mxCell>
        <mxCell id="17rlqQ4K7FpVVpBtT9sW-150" style="edgeStyle=orthogonalEdgeStyle;shape=connector;rounded=0;jumpStyle=arc;orthogonalLoop=1;jettySize=auto;html=1;dashed=1;labelBackgroundColor=default;strokeColor=default;fontFamily=Helvetica;fontSize=11;fontColor=default;endArrow=block;endFill=1;" edge="1" parent="17rlqQ4K7FpVVpBtT9sW-73" source="17rlqQ4K7FpVVpBtT9sW-113" target="17rlqQ4K7FpVVpBtT9sW-89">
          <mxGeometry relative="1" as="geometry">
            <Array as="points">
              <mxPoint x="770" y="420" />
            </Array>
          </mxGeometry>
        </mxCell>
        <mxCell id="17rlqQ4K7FpVVpBtT9sW-113" value="S4: Mantenimientos" style="shape=dataStorage;whiteSpace=wrap;html=1;fixedSize=1;align=left;" vertex="1" parent="17rlqQ4K7FpVVpBtT9sW-73">
          <mxGeometry x="850" y="410" width="130" height="40" as="geometry" />
        </mxCell>
        <mxCell id="17rlqQ4K7FpVVpBtT9sW-148" style="edgeStyle=orthogonalEdgeStyle;shape=connector;rounded=0;jumpStyle=arc;orthogonalLoop=1;jettySize=auto;html=1;dashed=1;labelBackgroundColor=default;strokeColor=default;fontFamily=Helvetica;fontSize=11;fontColor=default;endArrow=block;endFill=1;" edge="1" parent="17rlqQ4K7FpVVpBtT9sW-73" source="17rlqQ4K7FpVVpBtT9sW-78" target="17rlqQ4K7FpVVpBtT9sW-113">
          <mxGeometry relative="1" as="geometry">
            <Array as="points">
              <mxPoint x="520" y="250" />
              <mxPoint x="800" y="250" />
              <mxPoint x="800" y="360" />
              <mxPoint x="890" y="360" />
            </Array>
          </mxGeometry>
        </mxCell>
        <mxCell id="17rlqQ4K7FpVVpBtT9sW-147" style="edgeStyle=orthogonalEdgeStyle;shape=connector;rounded=0;jumpStyle=arc;orthogonalLoop=1;jettySize=auto;html=1;dashed=1;labelBackgroundColor=default;strokeColor=default;fontFamily=Helvetica;fontSize=11;fontColor=default;endArrow=block;endFill=1;" edge="1" parent="17rlqQ4K7FpVVpBtT9sW-73" source="17rlqQ4K7FpVVpBtT9sW-79" target="17rlqQ4K7FpVVpBtT9sW-113">
          <mxGeometry relative="1" as="geometry">
            <Array as="points">
              <mxPoint x="1060" y="360" />
              <mxPoint x="930" y="360" />
            </Array>
          </mxGeometry>
        </mxCell>
        <mxCell id="17rlqQ4K7FpVVpBtT9sW-142" style="edgeStyle=orthogonalEdgeStyle;shape=connector;rounded=0;orthogonalLoop=1;jettySize=auto;html=1;dashed=1;labelBackgroundColor=default;strokeColor=default;fontFamily=Helvetica;fontSize=11;fontColor=default;endArrow=block;endFill=1;" edge="1" parent="17rlqQ4K7FpVVpBtT9sW-73" source="17rlqQ4K7FpVVpBtT9sW-80" target="17rlqQ4K7FpVVpBtT9sW-113">
          <mxGeometry relative="1" as="geometry">
            <Array as="points">
              <mxPoint x="850" y="340" />
              <mxPoint x="910" y="340" />
            </Array>
          </mxGeometry>
        </mxCell>
        <mxCell id="17rlqQ4K7FpVVpBtT9sW-121" value="&lt;font style=&quot;font-size: 10px;&quot;&gt;R08: Mantenimiento &lt;br&gt;cancelado&lt;/font&gt;" style="html=1;shadow=0;dashed=0;align=left;verticalAlign=middle;shape=mxgraph.arrows2.arrow;dy=0.6;dx=40;notch=0;" vertex="1" parent="17rlqQ4K7FpVVpBtT9sW-73">
          <mxGeometry x="920" y="119" width="100" height="70" as="geometry" />
        </mxCell>
        <mxCell id="17rlqQ4K7FpVVpBtT9sW-129" value="&lt;font style=&quot;font-size: 10px;&quot;&gt;R07: Visita a taller &lt;br&gt;realizada&lt;/font&gt;" style="html=1;shadow=0;dashed=0;align=left;verticalAlign=middle;shape=mxgraph.arrows2.arrow;dy=0.6;dx=40;notch=0;" vertex="1" parent="17rlqQ4K7FpVVpBtT9sW-73">
          <mxGeometry x="920" y="199" width="100" height="70" as="geometry" />
        </mxCell>
        <mxCell id="17rlqQ4K7FpVVpBtT9sW-131" value="&lt;font style=&quot;font-size: 10px;&quot;&gt;R06: Mantenimiento &lt;br&gt;confirmado como &lt;br&gt;realizado&lt;/font&gt;" style="html=1;shadow=0;dashed=0;align=left;verticalAlign=middle;shape=mxgraph.arrows2.arrow;dy=0.52;dx=43.5;notch=0;" vertex="1" parent="17rlqQ4K7FpVVpBtT9sW-73">
          <mxGeometry x="1120" y="270" width="110" height="90" as="geometry" />
        </mxCell>
        <mxCell id="17rlqQ4K7FpVVpBtT9sW-153" value="1" style="strokeWidth=2;html=1;shape=mxgraph.flowchart.start_2;whiteSpace=wrap;fontFamily=Helvetica;fontSize=11;fontColor=default;" vertex="1" parent="17rlqQ4K7FpVVpBtT9sW-73">
          <mxGeometry x="940" y="70" width="20" height="20" as="geometry" />
        </mxCell>
        <mxCell id="17rlqQ4K7FpVVpBtT9sW-156" value="" style="edgeStyle=orthogonalEdgeStyle;shape=connector;rounded=0;jumpStyle=arc;orthogonalLoop=1;jettySize=auto;html=1;dashed=1;labelBackgroundColor=default;strokeColor=default;fontFamily=Helvetica;fontSize=11;fontColor=default;endArrow=block;endFill=1;entryX=0.859;entryY=0.489;entryDx=0;entryDy=0;entryPerimeter=0;" edge="1" parent="17rlqQ4K7FpVVpBtT9sW-73" source="17rlqQ4K7FpVVpBtT9sW-155" target="17rlqQ4K7FpVVpBtT9sW-113">
          <mxGeometry relative="1" as="geometry" />
        </mxCell>
        <mxCell id="17rlqQ4K7FpVVpBtT9sW-155" value="1" style="strokeWidth=2;html=1;shape=mxgraph.flowchart.start_2;whiteSpace=wrap;fontFamily=Helvetica;fontSize=11;fontColor=default;" vertex="1" parent="17rlqQ4K7FpVVpBtT9sW-73">
          <mxGeometry x="1020" y="450" width="20" height="20" as="geometry" />
        </mxCell>
        <mxCell id="17rlqQ4K7FpVVpBtT9sW-159" value="" style="shape=stencil(fZbdcgIhDIWfZm8zQAg/17Z9j85U606tdqz9e/tmZ0c0uJ47xP0I5JwEBl59bp8/1kNwn6fj4W39M76ctgM/DCGM++36OJ50NPDjwKvN4bh+PR6+9i/z74/n6ctp9H74nlb4nbmSKZeJCu5vngmZ6jzzNAO7cX8FVKEsBuBKrgKg9oAE8gkCbLeUhEoEQKSUDZDLeWYRKIl8MEDRmHwfyBrBG6Amyu4+kDxxMoB3jhwgYu7TVAsVkFcWCs4CTBEoF4RctKeOxHIf8IXYpikHikAIf+MNUW94AGSSaoAoFIE3AlOyeWU+p2E5S9yfQZcQILVuQOwZdJNoS9Ls3wA5u2XZTIHECqeJ9kDpSaauRiNVcAY1QhdBzeLBli5WazpkSsBLV25uRaqWRyFawTQzRRIQYirJzq5atkBqLfouwqUxLBepthWb10vrWZY6UOAeyKCCtDV625mm9gmUC4Wc3VLJMMIE1BsA2FW9JraVlQB7n3c9oMKhCLEvIM1zBPZ25/umNQ1tVEC2G+fFCC8g398O2hNQuQlVu752DBfA+q0ptnqO5JFmeuIuo9DY7KjY71UxdJV4EntifPWorW++R/dC4t7V3DlIB5cHx2bc7eb3yvX//QNFp+bHDT/+Aw==);lineShape=1;fontFamily=Helvetica;fontSize=11;fontColor=default;" vertex="1" parent="17rlqQ4K7FpVVpBtT9sW-73">
          <mxGeometry x="1213.867960842476" y="540.275306355004" width="4.67253977211476" height="4.665236216356789" as="geometry" />
        </mxCell>
        <mxCell id="17rlqQ4K7FpVVpBtT9sW-162" style="edgeStyle=orthogonalEdgeStyle;shape=connector;rounded=0;jumpStyle=arc;orthogonalLoop=1;jettySize=auto;html=1;dashed=1;labelBackgroundColor=default;strokeColor=default;fontFamily=Helvetica;fontSize=11;fontColor=default;endArrow=block;endFill=1;" edge="1" parent="17rlqQ4K7FpVVpBtT9sW-73" source="17rlqQ4K7FpVVpBtT9sW-160" target="17rlqQ4K7FpVVpBtT9sW-101">
          <mxGeometry relative="1" as="geometry">
            <mxPoint x="580" y="511" as="targetPoint" />
            <Array as="points">
              <mxPoint x="580" y="545" />
            </Array>
          </mxGeometry>
        </mxCell>
        <mxCell id="17rlqQ4K7FpVVpBtT9sW-160" value="destinatario&lt;br&gt;plantilla&lt;br&gt;asunto" style="strokeWidth=1;html=1;shape=mxgraph.flowchart.display;whiteSpace=wrap;" vertex="1" parent="17rlqQ4K7FpVVpBtT9sW-73">
          <mxGeometry x="630" y="510" width="100" height="70" as="geometry" />
        </mxCell>
        <mxCell id="17rlqQ4K7FpVVpBtT9sW-174" style="edgeStyle=orthogonalEdgeStyle;shape=connector;rounded=0;jumpStyle=arc;orthogonalLoop=1;jettySize=auto;html=1;entryX=0.75;entryY=0;entryDx=0;entryDy=0;dashed=1;labelBackgroundColor=default;strokeColor=default;fontFamily=Helvetica;fontSize=11;fontColor=default;endArrow=block;endFill=1;" edge="1" parent="17rlqQ4K7FpVVpBtT9sW-73" source="17rlqQ4K7FpVVpBtT9sW-163" target="17rlqQ4K7FpVVpBtT9sW-100">
          <mxGeometry relative="1" as="geometry">
            <Array as="points">
              <mxPoint x="1130" y="60" />
              <mxPoint x="830" y="60" />
            </Array>
          </mxGeometry>
        </mxCell>
        <mxCell id="17rlqQ4K7FpVVpBtT9sW-163" value="Longitud inicial,&lt;br&gt;Latitud inicial,&lt;br&gt;Longitud final,&lt;br&gt;Latitud final,&lt;br&gt;Distancia en KM" style="strokeWidth=1;html=1;shape=mxgraph.flowchart.display;whiteSpace=wrap;" vertex="1" parent="17rlqQ4K7FpVVpBtT9sW-73">
          <mxGeometry x="1060" y="63" width="140" height="94" as="geometry" />
        </mxCell>
        <mxCell id="17rlqQ4K7FpVVpBtT9sW-167" style="edgeStyle=orthogonalEdgeStyle;shape=connector;rounded=0;jumpStyle=arc;orthogonalLoop=1;jettySize=auto;html=1;entryX=0;entryY=0.25;entryDx=0;entryDy=0;dashed=1;labelBackgroundColor=default;strokeColor=default;fontFamily=Helvetica;fontSize=11;fontColor=default;endArrow=block;endFill=1;exitX=0.816;exitY=0.513;exitDx=0;exitDy=0;exitPerimeter=0;" edge="1" parent="17rlqQ4K7FpVVpBtT9sW-73" source="17rlqQ4K7FpVVpBtT9sW-164" target="17rlqQ4K7FpVVpBtT9sW-89">
          <mxGeometry relative="1" as="geometry">
            <Array as="points">
              <mxPoint x="250" y="285" />
              <mxPoint x="250" y="330" />
            </Array>
          </mxGeometry>
        </mxCell>
        <mxCell id="17rlqQ4K7FpVVpBtT9sW-164" value="S0: Usuario" style="shape=dataStorage;whiteSpace=wrap;html=1;fixedSize=1;align=left;" vertex="1" parent="17rlqQ4K7FpVVpBtT9sW-73">
          <mxGeometry x="140" y="254" width="85" height="60" as="geometry" />
        </mxCell>
        <mxCell id="17rlqQ4K7FpVVpBtT9sW-169" value="" style="edgeStyle=orthogonalEdgeStyle;shape=connector;rounded=0;jumpStyle=arc;orthogonalLoop=1;jettySize=auto;html=1;dashed=1;labelBackgroundColor=default;strokeColor=default;fontFamily=Helvetica;fontSize=11;fontColor=default;endArrow=block;endFill=1;" edge="1" parent="17rlqQ4K7FpVVpBtT9sW-73" source="17rlqQ4K7FpVVpBtT9sW-166" target="17rlqQ4K7FpVVpBtT9sW-164">
          <mxGeometry relative="1" as="geometry">
            <Array as="points">
              <mxPoint x="160" y="330" />
              <mxPoint x="183" y="330" />
            </Array>
          </mxGeometry>
        </mxCell>
        <mxCell id="17rlqQ4K7FpVVpBtT9sW-166" value="&lt;div style=&quot;&quot;&gt;&lt;span style=&quot;background-color: initial;&quot;&gt;&amp;nbsp; &amp;nbsp;id,&amp;nbsp;&lt;/span&gt;&lt;span style=&quot;background-color: initial;&quot;&gt;nombre,&amp;nbsp;&lt;/span&gt;&lt;/div&gt;&lt;div style=&quot;&quot;&gt;&lt;span style=&quot;background-color: initial;&quot;&gt;email,&amp;nbsp;&lt;/span&gt;&lt;span style=&quot;background-color: initial;&quot;&gt;celular,&amp;nbsp;&lt;/span&gt;&lt;/div&gt;&lt;div style=&quot;&quot;&gt;&lt;span style=&quot;background-color: initial;&quot;&gt;contraseña, estado&lt;/span&gt;&lt;/div&gt;" style="strokeWidth=1;html=1;shape=mxgraph.flowchart.display;whiteSpace=wrap;align=center;" vertex="1" parent="17rlqQ4K7FpVVpBtT9sW-73">
          <mxGeometry x="90" y="345" width="140" height="79" as="geometry" />
        </mxCell>
        <mxCell id="17rlqQ4K7FpVVpBtT9sW-175" style="edgeStyle=orthogonalEdgeStyle;shape=connector;rounded=0;jumpStyle=arc;orthogonalLoop=1;jettySize=auto;html=1;entryX=0.5;entryY=1;entryDx=0;entryDy=0;dashed=1;labelBackgroundColor=default;strokeColor=default;fontFamily=Helvetica;fontSize=11;fontColor=default;endArrow=block;endFill=1;" edge="1" parent="17rlqQ4K7FpVVpBtT9sW-73" source="17rlqQ4K7FpVVpBtT9sW-171" target="17rlqQ4K7FpVVpBtT9sW-89">
          <mxGeometry relative="1" as="geometry" />
        </mxCell>
        <mxCell id="17rlqQ4K7FpVVpBtT9sW-171" value="&lt;div style=&quot;&quot;&gt;id, placa, kilometraje, matricula&lt;/div&gt;" style="strokeWidth=1;html=1;shape=mxgraph.flowchart.display;whiteSpace=wrap;align=center;" vertex="1" parent="17rlqQ4K7FpVVpBtT9sW-73">
          <mxGeometry x="820" y="490" width="140" height="79" as="geometry" />
        </mxCell>
        <mxCell id="17rlqQ4K7FpVVpBtT9sW-154" style="edgeStyle=orthogonalEdgeStyle;shape=connector;rounded=0;jumpStyle=arc;orthogonalLoop=1;jettySize=auto;html=1;dashed=1;labelBackgroundColor=default;strokeColor=default;fontFamily=Helvetica;fontSize=11;fontColor=default;endArrow=block;endFill=1;" edge="1" parent="17rlqQ4K7FpVVpBtT9sW-73" source="17rlqQ4K7FpVVpBtT9sW-81" target="17rlqQ4K7FpVVpBtT9sW-153">
          <mxGeometry relative="1" as="geometry">
            <Array as="points">
              <mxPoint x="865" y="80" />
            </Array>
          </mxGeometry>
        </mxCell>
        <mxCell id="17rlqQ4K7FpVVpBtT9sW-177" value="&lt;font style=&quot;font-size: 10px;&quot;&gt;E04: Usuario en &lt;br&gt;marcha&lt;/font&gt;" style="html=1;shadow=0;dashed=0;align=left;verticalAlign=middle;shape=mxgraph.arrows2.arrow;dy=0.31;dx=27.67;notch=0;" vertex="1" parent="17rlqQ4K7FpVVpBtT9sW-73">
          <mxGeometry x="370" y="60" width="90" height="40" as="geometry" />
        </mxCell>
        <mxCell id="17rlqQ4K7FpVVpBtT9sW-178" value="P9: Crea Mecánico Taller" style="rounded=0;whiteSpace=wrap;html=1;" vertex="1" parent="1">
          <mxGeometry x="180" y="460" width="120" height="60" as="geometry" />
        </mxCell>
        <mxCell id="17rlqQ4K7FpVVpBtT9sW-201" value="" style="edgeStyle=orthogonalEdgeStyle;shape=connector;curved=0;rounded=0;jumpStyle=arc;orthogonalLoop=1;jettySize=auto;html=1;labelBackgroundColor=default;strokeColor=default;fontFamily=Helvetica;fontSize=11;fontColor=default;endArrow=block;endFill=1;" edge="1" parent="1" source="17rlqQ4K7FpVVpBtT9sW-179" target="17rlqQ4K7FpVVpBtT9sW-199">
          <mxGeometry relative="1" as="geometry" />
        </mxCell>
        <mxCell id="17rlqQ4K7FpVVpBtT9sW-179" value="P10: Crea País / Departamento / Ciudad" style="rounded=0;whiteSpace=wrap;html=1;" vertex="1" parent="1">
          <mxGeometry x="180" y="60" width="90" height="80" as="geometry" />
        </mxCell>
        <mxCell id="17rlqQ4K7FpVVpBtT9sW-180" value="P11: Edita País / Departamento / Ciudad" style="rounded=0;whiteSpace=wrap;html=1;" vertex="1" parent="1">
          <mxGeometry x="420" y="20" width="120" height="60" as="geometry" />
        </mxCell>
        <mxCell id="17rlqQ4K7FpVVpBtT9sW-218" value="" style="edgeStyle=orthogonalEdgeStyle;shape=connector;curved=0;rounded=0;jumpStyle=arc;orthogonalLoop=1;jettySize=auto;html=1;labelBackgroundColor=default;strokeColor=default;fontFamily=Helvetica;fontSize=11;fontColor=default;endArrow=block;endFill=1;" edge="1" parent="1" source="17rlqQ4K7FpVVpBtT9sW-181" target="17rlqQ4K7FpVVpBtT9sW-183">
          <mxGeometry relative="1" as="geometry">
            <Array as="points">
              <mxPoint x="624" y="260" />
              <mxPoint x="624" y="300" />
            </Array>
          </mxGeometry>
        </mxCell>
        <mxCell id="17rlqQ4K7FpVVpBtT9sW-181" value="P14: Edita Marca" style="rounded=0;whiteSpace=wrap;html=1;" vertex="1" parent="1">
          <mxGeometry x="420" y="210" width="120" height="60" as="geometry" />
        </mxCell>
        <mxCell id="17rlqQ4K7FpVVpBtT9sW-182" value="P15: Elimina Marca" style="rounded=0;whiteSpace=wrap;html=1;" vertex="1" parent="1">
          <mxGeometry x="420" y="310" width="120" height="60" as="geometry" />
        </mxCell>
        <mxCell id="17rlqQ4K7FpVVpBtT9sW-215" value="" style="edgeStyle=orthogonalEdgeStyle;shape=connector;curved=0;rounded=0;jumpStyle=arc;orthogonalLoop=1;jettySize=auto;html=1;labelBackgroundColor=default;strokeColor=default;fontFamily=Helvetica;fontSize=11;fontColor=default;endArrow=block;endFill=1;" edge="1" parent="1" source="17rlqQ4K7FpVVpBtT9sW-183" target="17rlqQ4K7FpVVpBtT9sW-212">
          <mxGeometry relative="1" as="geometry" />
        </mxCell>
        <mxCell id="17rlqQ4K7FpVVpBtT9sW-217" style="edgeStyle=orthogonalEdgeStyle;shape=connector;curved=0;rounded=0;jumpStyle=arc;orthogonalLoop=1;jettySize=auto;html=1;labelBackgroundColor=default;strokeColor=default;fontFamily=Helvetica;fontSize=11;fontColor=default;endArrow=block;endFill=1;" edge="1" parent="1" source="17rlqQ4K7FpVVpBtT9sW-183" target="17rlqQ4K7FpVVpBtT9sW-184">
          <mxGeometry relative="1" as="geometry">
            <Array as="points">
              <mxPoint x="768" y="210" />
              <mxPoint x="1068" y="210" />
              <mxPoint x="1068" y="290" />
            </Array>
          </mxGeometry>
        </mxCell>
        <mxCell id="17rlqQ4K7FpVVpBtT9sW-183" value="P16: Crea Referencia" style="rounded=0;whiteSpace=wrap;html=1;" vertex="1" parent="1">
          <mxGeometry x="708" y="270" width="120" height="60" as="geometry" />
        </mxCell>
        <mxCell id="17rlqQ4K7FpVVpBtT9sW-220" value="" style="edgeStyle=orthogonalEdgeStyle;shape=connector;curved=0;rounded=0;jumpStyle=arc;orthogonalLoop=1;jettySize=auto;html=1;labelBackgroundColor=default;strokeColor=default;fontFamily=Helvetica;fontSize=11;fontColor=default;endArrow=block;endFill=1;" edge="1" parent="1" source="17rlqQ4K7FpVVpBtT9sW-184" target="17rlqQ4K7FpVVpBtT9sW-219">
          <mxGeometry relative="1" as="geometry" />
        </mxCell>
        <mxCell id="17rlqQ4K7FpVVpBtT9sW-184" value="P19: Crea plan de mantenimiento" style="rounded=0;whiteSpace=wrap;html=1;" vertex="1" parent="1">
          <mxGeometry x="1088" y="270" width="120" height="60" as="geometry" />
        </mxCell>
        <mxCell id="17rlqQ4K7FpVVpBtT9sW-185" value="P20: Edita plan de mantenimiento" style="rounded=0;whiteSpace=wrap;html=1;" vertex="1" parent="1">
          <mxGeometry x="1308" y="320" width="120" height="60" as="geometry" />
        </mxCell>
        <mxCell id="17rlqQ4K7FpVVpBtT9sW-186" value="P21: Elimina plan de mantenimiento" style="rounded=0;whiteSpace=wrap;html=1;" vertex="1" parent="1">
          <mxGeometry x="1308" y="225" width="120" height="60" as="geometry" />
        </mxCell>
        <mxCell id="17rlqQ4K7FpVVpBtT9sW-187" value="P12: Elimina País / Departamento / Ciudad" style="rounded=0;whiteSpace=wrap;html=1;" vertex="1" parent="1">
          <mxGeometry x="420" y="120" width="120" height="60" as="geometry" />
        </mxCell>
        <mxCell id="17rlqQ4K7FpVVpBtT9sW-207" value="" style="edgeStyle=orthogonalEdgeStyle;shape=connector;curved=0;rounded=0;jumpStyle=arc;orthogonalLoop=1;jettySize=auto;html=1;labelBackgroundColor=default;strokeColor=default;fontFamily=Helvetica;fontSize=11;fontColor=default;endArrow=block;endFill=1;" edge="1" parent="1" source="17rlqQ4K7FpVVpBtT9sW-188" target="17rlqQ4K7FpVVpBtT9sW-206">
          <mxGeometry relative="1" as="geometry" />
        </mxCell>
        <mxCell id="17rlqQ4K7FpVVpBtT9sW-208" style="edgeStyle=orthogonalEdgeStyle;shape=connector;curved=0;rounded=0;jumpStyle=arc;orthogonalLoop=1;jettySize=auto;html=1;labelBackgroundColor=default;strokeColor=default;fontFamily=Helvetica;fontSize=11;fontColor=default;endArrow=block;endFill=1;" edge="1" parent="1" source="17rlqQ4K7FpVVpBtT9sW-188" target="17rlqQ4K7FpVVpBtT9sW-183">
          <mxGeometry relative="1" as="geometry">
            <Array as="points">
              <mxPoint x="240" y="190" />
              <mxPoint x="650" y="190" />
              <mxPoint x="650" y="290" />
            </Array>
          </mxGeometry>
        </mxCell>
        <mxCell id="17rlqQ4K7FpVVpBtT9sW-188" value="P13: Crea Marca" style="rounded=0;whiteSpace=wrap;html=1;" vertex="1" parent="1">
          <mxGeometry x="180" y="250" width="90" height="80" as="geometry" />
        </mxCell>
        <mxCell id="17rlqQ4K7FpVVpBtT9sW-216" value="" style="edgeStyle=orthogonalEdgeStyle;shape=connector;curved=0;rounded=0;jumpStyle=arc;orthogonalLoop=1;jettySize=auto;html=1;labelBackgroundColor=default;strokeColor=default;fontFamily=Helvetica;fontSize=11;fontColor=default;endArrow=block;endFill=1;" edge="1" parent="1" source="17rlqQ4K7FpVVpBtT9sW-189" target="17rlqQ4K7FpVVpBtT9sW-184">
          <mxGeometry relative="1" as="geometry">
            <Array as="points">
              <mxPoint x="1058" y="250" />
              <mxPoint x="1058" y="300" />
            </Array>
          </mxGeometry>
        </mxCell>
        <mxCell id="17rlqQ4K7FpVVpBtT9sW-189" value="P17: Edita Referencia" style="rounded=0;whiteSpace=wrap;html=1;" vertex="1" parent="1">
          <mxGeometry x="908" y="220" width="120" height="60" as="geometry" />
        </mxCell>
        <mxCell id="17rlqQ4K7FpVVpBtT9sW-190" value="P18: Elimina Referencia" style="rounded=0;whiteSpace=wrap;html=1;" vertex="1" parent="1">
          <mxGeometry x="908" y="320" width="120" height="60" as="geometry" />
        </mxCell>
        <mxCell id="17rlqQ4K7FpVVpBtT9sW-191" value="P25: Calcula Kilometraje actual" style="rounded=0;whiteSpace=wrap;html=1;" vertex="1" parent="1">
          <mxGeometry x="360" y="430" width="120" height="60" as="geometry" />
        </mxCell>
        <mxCell id="17rlqQ4K7FpVVpBtT9sW-192" value="P26: Recibe ubicaciones de motos" style="rounded=0;whiteSpace=wrap;html=1;" vertex="1" parent="1">
          <mxGeometry x="180" y="370" width="120" height="60" as="geometry" />
        </mxCell>
        <mxCell id="17rlqQ4K7FpVVpBtT9sW-193" value="P27: Selecciona motos a notificar" style="rounded=0;whiteSpace=wrap;html=1;" vertex="1" parent="1">
          <mxGeometry x="200" y="540" width="120" height="60" as="geometry" />
        </mxCell>
        <mxCell id="17rlqQ4K7FpVVpBtT9sW-194" value="P8: Envía notificación" style="rounded=0;whiteSpace=wrap;html=1;" vertex="1" parent="1">
          <mxGeometry x="360" y="530" width="120" height="60" as="geometry" />
        </mxCell>
        <mxCell id="17rlqQ4K7FpVVpBtT9sW-195" value="&lt;font style=&quot;font-size: 10px;&quot;&gt;E04: Administrador&lt;br&gt;registrado a DinoTrack&lt;/font&gt;" style="html=1;shadow=0;dashed=0;align=left;verticalAlign=middle;shape=mxgraph.arrows2.arrow;dy=0.46;dx=21.47;notch=0;" vertex="1" parent="1">
          <mxGeometry x="60" y="30" width="120" height="70" as="geometry" />
        </mxCell>
        <mxCell id="17rlqQ4K7FpVVpBtT9sW-197" value="&lt;font style=&quot;font-size: 10px;&quot;&gt;E05: Asignación de permisos &lt;br&gt;para el rol Administrador&lt;/font&gt;" style="html=1;shadow=0;dashed=0;align=left;verticalAlign=middle;shape=mxgraph.arrows2.arrow;dy=0.57;dx=32.21;notch=0;" vertex="1" parent="1">
          <mxGeometry x="40" y="90" width="140" height="80" as="geometry" />
        </mxCell>
        <mxCell id="17rlqQ4K7FpVVpBtT9sW-202" value="" style="edgeStyle=orthogonalEdgeStyle;shape=connector;curved=0;rounded=0;jumpStyle=arc;orthogonalLoop=1;jettySize=auto;html=1;labelBackgroundColor=default;strokeColor=default;fontFamily=Helvetica;fontSize=11;fontColor=default;endArrow=block;endFill=1;" edge="1" parent="1" source="17rlqQ4K7FpVVpBtT9sW-199" target="17rlqQ4K7FpVVpBtT9sW-187">
          <mxGeometry relative="1" as="geometry">
            <Array as="points">
              <mxPoint x="400" y="110" />
              <mxPoint x="400" y="150" />
            </Array>
          </mxGeometry>
        </mxCell>
        <mxCell id="17rlqQ4K7FpVVpBtT9sW-203" style="edgeStyle=orthogonalEdgeStyle;shape=connector;curved=0;rounded=0;jumpStyle=arc;orthogonalLoop=1;jettySize=auto;html=1;entryX=0;entryY=0.5;entryDx=0;entryDy=0;labelBackgroundColor=default;strokeColor=default;fontFamily=Helvetica;fontSize=11;fontColor=default;endArrow=block;endFill=1;" edge="1" parent="1" source="17rlqQ4K7FpVVpBtT9sW-199" target="17rlqQ4K7FpVVpBtT9sW-180">
          <mxGeometry relative="1" as="geometry">
            <Array as="points">
              <mxPoint x="400" y="90" />
              <mxPoint x="400" y="50" />
            </Array>
          </mxGeometry>
        </mxCell>
        <mxCell id="17rlqQ4K7FpVVpBtT9sW-199" value="" style="html=1;points=[[0,0,0,0,5],[0,1,0,0,-5],[1,0,0,0,5],[1,1,0,0,-5]];perimeter=orthogonalPerimeter;outlineConnect=0;targetShapes=umlLifeline;portConstraint=eastwest;newEdgeStyle={&quot;curved&quot;:0,&quot;rounded&quot;:0};fillColor=#000000;" vertex="1" parent="1">
          <mxGeometry x="370" y="60" width="10" height="80" as="geometry" />
        </mxCell>
        <mxCell id="17rlqQ4K7FpVVpBtT9sW-204" value="&lt;font style=&quot;font-size: 10px;&quot;&gt;E04: Administrador&lt;br&gt;registrado a DinoTrack&lt;/font&gt;" style="html=1;shadow=0;dashed=0;align=left;verticalAlign=middle;shape=mxgraph.arrows2.arrow;dy=0.46;dx=21.47;notch=0;" vertex="1" parent="1">
          <mxGeometry x="60" y="220" width="120" height="70" as="geometry" />
        </mxCell>
        <mxCell id="17rlqQ4K7FpVVpBtT9sW-205" value="&lt;font style=&quot;font-size: 10px;&quot;&gt;E05: Asignación de permisos &lt;br&gt;para el rol Administrador&lt;/font&gt;" style="html=1;shadow=0;dashed=0;align=left;verticalAlign=middle;shape=mxgraph.arrows2.arrow;dy=0.57;dx=32.21;notch=0;" vertex="1" parent="1">
          <mxGeometry x="40" y="280" width="140" height="80" as="geometry" />
        </mxCell>
        <mxCell id="17rlqQ4K7FpVVpBtT9sW-210" value="" style="edgeStyle=orthogonalEdgeStyle;shape=connector;curved=0;rounded=0;jumpStyle=arc;orthogonalLoop=1;jettySize=auto;html=1;labelBackgroundColor=default;strokeColor=default;fontFamily=Helvetica;fontSize=11;fontColor=default;endArrow=block;endFill=1;" edge="1" parent="1" source="17rlqQ4K7FpVVpBtT9sW-206" target="17rlqQ4K7FpVVpBtT9sW-182">
          <mxGeometry relative="1" as="geometry">
            <Array as="points">
              <mxPoint x="400" y="300" />
              <mxPoint x="400" y="340" />
            </Array>
          </mxGeometry>
        </mxCell>
        <mxCell id="17rlqQ4K7FpVVpBtT9sW-211" style="edgeStyle=orthogonalEdgeStyle;shape=connector;curved=0;rounded=0;jumpStyle=arc;orthogonalLoop=1;jettySize=auto;html=1;entryX=0;entryY=0.5;entryDx=0;entryDy=0;labelBackgroundColor=default;strokeColor=default;fontFamily=Helvetica;fontSize=11;fontColor=default;endArrow=block;endFill=1;" edge="1" parent="1" source="17rlqQ4K7FpVVpBtT9sW-206" target="17rlqQ4K7FpVVpBtT9sW-181">
          <mxGeometry relative="1" as="geometry">
            <Array as="points">
              <mxPoint x="400" y="280" />
              <mxPoint x="400" y="240" />
            </Array>
          </mxGeometry>
        </mxCell>
        <mxCell id="17rlqQ4K7FpVVpBtT9sW-206" value="" style="html=1;points=[[0,0,0,0,5],[0,1,0,0,-5],[1,0,0,0,5],[1,1,0,0,-5]];perimeter=orthogonalPerimeter;outlineConnect=0;targetShapes=umlLifeline;portConstraint=eastwest;newEdgeStyle={&quot;curved&quot;:0,&quot;rounded&quot;:0};fillColor=#000000;" vertex="1" parent="1">
          <mxGeometry x="370" y="250" width="10" height="80" as="geometry" />
        </mxCell>
        <mxCell id="17rlqQ4K7FpVVpBtT9sW-213" style="edgeStyle=orthogonalEdgeStyle;shape=connector;curved=0;rounded=0;jumpStyle=arc;orthogonalLoop=1;jettySize=auto;html=1;labelBackgroundColor=default;strokeColor=default;fontFamily=Helvetica;fontSize=11;fontColor=default;endArrow=block;endFill=1;" edge="1" parent="1" source="17rlqQ4K7FpVVpBtT9sW-212" target="17rlqQ4K7FpVVpBtT9sW-189">
          <mxGeometry relative="1" as="geometry">
            <Array as="points">
              <mxPoint x="898" y="290" />
              <mxPoint x="898" y="250" />
            </Array>
          </mxGeometry>
        </mxCell>
        <mxCell id="17rlqQ4K7FpVVpBtT9sW-214" value="" style="edgeStyle=orthogonalEdgeStyle;shape=connector;curved=0;rounded=0;jumpStyle=arc;orthogonalLoop=1;jettySize=auto;html=1;labelBackgroundColor=default;strokeColor=default;fontFamily=Helvetica;fontSize=11;fontColor=default;endArrow=block;endFill=1;" edge="1" parent="1" source="17rlqQ4K7FpVVpBtT9sW-212" target="17rlqQ4K7FpVVpBtT9sW-190">
          <mxGeometry relative="1" as="geometry">
            <Array as="points">
              <mxPoint x="898" y="310" />
              <mxPoint x="898" y="350" />
            </Array>
          </mxGeometry>
        </mxCell>
        <mxCell id="17rlqQ4K7FpVVpBtT9sW-212" value="" style="html=1;points=[[0,0,0,0,5],[0,1,0,0,-5],[1,0,0,0,5],[1,1,0,0,-5]];perimeter=orthogonalPerimeter;outlineConnect=0;targetShapes=umlLifeline;portConstraint=eastwest;newEdgeStyle={&quot;curved&quot;:0,&quot;rounded&quot;:0};fillColor=#000000;" vertex="1" parent="1">
          <mxGeometry x="868" y="260" width="10" height="80" as="geometry" />
        </mxCell>
        <mxCell id="17rlqQ4K7FpVVpBtT9sW-221" value="" style="edgeStyle=orthogonalEdgeStyle;shape=connector;curved=0;rounded=0;jumpStyle=arc;orthogonalLoop=1;jettySize=auto;html=1;labelBackgroundColor=default;strokeColor=default;fontFamily=Helvetica;fontSize=11;fontColor=default;endArrow=block;endFill=1;" edge="1" parent="1" source="17rlqQ4K7FpVVpBtT9sW-219" target="17rlqQ4K7FpVVpBtT9sW-186">
          <mxGeometry relative="1" as="geometry">
            <Array as="points">
              <mxPoint x="1288" y="290" />
              <mxPoint x="1288" y="255" />
            </Array>
          </mxGeometry>
        </mxCell>
        <mxCell id="17rlqQ4K7FpVVpBtT9sW-224" style="edgeStyle=orthogonalEdgeStyle;shape=connector;curved=0;rounded=0;jumpStyle=arc;orthogonalLoop=1;jettySize=auto;html=1;labelBackgroundColor=default;strokeColor=default;fontFamily=Helvetica;fontSize=11;fontColor=default;endArrow=block;endFill=1;" edge="1" parent="1" source="17rlqQ4K7FpVVpBtT9sW-219" target="17rlqQ4K7FpVVpBtT9sW-185">
          <mxGeometry relative="1" as="geometry">
            <Array as="points">
              <mxPoint x="1288" y="310" />
              <mxPoint x="1288" y="350" />
            </Array>
          </mxGeometry>
        </mxCell>
        <mxCell id="17rlqQ4K7FpVVpBtT9sW-219" value="" style="html=1;points=[[0,0,0,0,5],[0,1,0,0,-5],[1,0,0,0,5],[1,1,0,0,-5]];perimeter=orthogonalPerimeter;outlineConnect=0;targetShapes=umlLifeline;portConstraint=eastwest;newEdgeStyle={&quot;curved&quot;:0,&quot;rounded&quot;:0};fillColor=#000000;" vertex="1" parent="1">
          <mxGeometry x="1258" y="260" width="10" height="80" as="geometry" />
        </mxCell>
        <mxCell id="17rlqQ4K7FpVVpBtT9sW-226" value="S5: Ciudad" style="shape=dataStorage;whiteSpace=wrap;html=1;fixedSize=1;align=left;" vertex="1" parent="1">
          <mxGeometry x="710" y="140" width="100" height="50" as="geometry" />
        </mxCell>
        <mxCell id="17rlqQ4K7FpVVpBtT9sW-227" value="S7: Departamento" style="shape=dataStorage;whiteSpace=wrap;html=1;fixedSize=1;align=left;" vertex="1" parent="1">
          <mxGeometry x="710" y="70" width="120" height="50" as="geometry" />
        </mxCell>
        <mxCell id="17rlqQ4K7FpVVpBtT9sW-228" value="S6: País" style="shape=dataStorage;whiteSpace=wrap;html=1;fixedSize=1;align=left;" vertex="1" parent="1">
          <mxGeometry x="710" width="100" height="50" as="geometry" />
        </mxCell>
        <mxCell id="17rlqQ4K7FpVVpBtT9sW-229" value="&lt;font style=&quot;font-size: 10px;&quot;&gt;R11: País / &lt;br&gt;Departamento / &lt;br&gt;Ciudad eliminado&lt;/font&gt;" style="html=1;shadow=0;dashed=0;align=left;verticalAlign=middle;shape=mxgraph.arrows2.arrow;dy=0.37;dx=38.17;notch=0;" vertex="1" parent="1">
          <mxGeometry x="540" y="117" width="109" height="68" as="geometry" />
        </mxCell>
        <mxCell id="17rlqQ4K7FpVVpBtT9sW-230" value="&lt;font style=&quot;font-size: 10px;&quot;&gt;R10: País / &lt;br&gt;Departamento / &lt;br&gt;Ciudad editado&lt;/font&gt;" style="html=1;shadow=0;dashed=0;align=left;verticalAlign=middle;shape=mxgraph.arrows2.arrow;dy=0.51;dx=32.39;notch=0;" vertex="1" parent="1">
          <mxGeometry x="539.5" y="2.5" width="90.5" height="97.5" as="geometry" />
        </mxCell>
        <mxCell id="17rlqQ4K7FpVVpBtT9sW-231" value="&lt;font style=&quot;font-size: 10px;&quot;&gt;R14: Marca &lt;br&gt;eliminada&lt;/font&gt;" style="html=1;shadow=0;dashed=0;align=left;verticalAlign=middle;shape=mxgraph.arrows2.arrow;dy=0.6;dx=40;notch=0;" vertex="1" parent="1">
          <mxGeometry x="540" y="305" width="70" height="75" as="geometry" />
        </mxCell>
        <mxCell id="17rlqQ4K7FpVVpBtT9sW-232" value="&lt;font style=&quot;font-size: 10px;&quot;&gt;R13: Marca &lt;br&gt;editada&lt;/font&gt;" style="html=1;shadow=0;dashed=0;align=left;verticalAlign=middle;shape=mxgraph.arrows2.arrow;dy=0.48;dx=19.61;notch=0;" vertex="1" parent="1">
          <mxGeometry x="540" y="204" width="80" height="54" as="geometry" />
        </mxCell>
        <mxCell id="17rlqQ4K7FpVVpBtT9sW-233" value="&lt;font style=&quot;font-size: 10px;&quot;&gt;R09: País / &lt;br&gt;Departamento / &lt;br&gt;Ciudad creado&lt;/font&gt;" style="html=1;shadow=0;dashed=0;align=left;verticalAlign=middle;shape=mxgraph.arrows2.arrow;dy=0.46;dx=32.57;notch=0;" vertex="1" parent="1">
          <mxGeometry x="270" y="105" width="90" height="77" as="geometry" />
        </mxCell>
        <mxCell id="17rlqQ4K7FpVVpBtT9sW-234" value="&lt;font style=&quot;font-size: 10px;&quot;&gt;R12: Marca &lt;br&gt;creada&lt;/font&gt;" style="html=1;shadow=0;dashed=0;align=left;verticalAlign=middle;shape=mxgraph.arrows2.arrow;dy=0.47;dx=34.39;notch=0;" vertex="1" parent="1">
          <mxGeometry x="270" y="300" width="90" height="60" as="geometry" />
        </mxCell>
      </root>
    </mxGraphModel>
  </diagram>
</mxfile>
